<svg width="14" height="17" viewBox="0 0 14 17" fill="none" xmlns="http://www.w3.org/2000/svg">
<path fill-rule="evenodd" clip-rule="evenodd" d="M2.62901 2.6405C2.62901 1.68168 2.62901 1.3137 2.51006 1.21523C2.39112 1.11676 2.04463 1.03901 1 0.992368V0.567377C1.11461 0.567377 1.38903 0.573958 1.73171 0.582177L1.73171 0.582177C2.30128 0.595838 3.05942 0.614022 3.58573 0.614022C4.10287 0.614022 4.51659 0.614022 5.0751 0.567377C5.63362 0.520731 6.25937 0.5 6.84374 0.5C8.39518 0.5 9.66218 0.660667 10.4638 1.19968C11.5172 1.89452 12.1418 3.08196 12.1186 4.34565C12.1186 6.11817 10.9757 7.3776 8.92783 8.14984C8.77957 8.15083 8.63722 8.20826 8.52963 8.31051C8.52963 8.37985 8.61821 8.39765 8.88457 8.45117C8.97655 8.46966 9.08973 8.4924 9.22778 8.523C11.4153 8.96354 12.8478 10.2489 12.8478 12.322C12.8372 13.8198 11.982 15.1827 10.6396 15.8411C9.60461 16.3161 8.47246 16.5399 7.33503 16.4942C6.75583 16.4942 6.09905 16.4942 5.44745 16.4268C4.91815 16.3721 4.40251 16.3755 3.91714 16.3787H3.91711H3.91702C3.80491 16.3794 3.69441 16.3802 3.58573 16.3802C3.08643 16.3802 2.35541 16.3976 1.78678 16.4111H1.78674C1.42484 16.4197 1.12872 16.4268 1 16.4268V15.9655C2.03429 15.9189 2.37561 15.8982 2.51524 15.7582C2.63761 15.6356 2.63684 15.3696 2.63478 14.6602C2.63449 14.5602 2.63418 14.4514 2.63418 14.3329V2.6405H2.62901ZM4.49072 8.0825C5.00787 8.12915 5.77324 8.17579 6.6317 8.17579C7.35598 8.2479 8.08525 8.10173 8.72614 7.75598C9.75591 7.14336 10.3705 6.01679 10.3293 4.81733C10.346 3.67095 9.88045 2.57047 9.04677 1.78538C8.32276 1.15826 7.3919 0.966494 6.25419 0.966494C4.92512 0.966494 4.67172 1.05978 4.57864 1.24637C4.53726 1.34484 4.49072 1.57807 4.49072 2.60426V8.0825ZM4.60967 15.779C4.49072 15.6649 4.49072 15.4525 4.49072 14.333V8.70961C5.02855 8.66296 5.63361 8.61631 6.61102 8.61631C9.91558 8.61631 10.8464 10.1815 10.8464 12.208C10.8954 13.3748 10.3958 14.4971 9.49669 15.24C8.84509 15.7531 7.96077 15.9863 6.67825 15.9863C5.26127 15.9863 4.72861 15.893 4.60967 15.779Z" fill="#fff"/>
<path d="M2.51006 1.21523L2.35064 1.4078L2.35064 1.4078L2.51006 1.21523ZM2.62901 2.6405H2.37901V2.8905H2.62901V2.6405ZM1 0.992368H0.75V1.23145L0.988848 1.24212L1 0.992368ZM1 0.567377V0.317377H0.75V0.567377H1ZM1.73171 0.582177L1.72571 0.832107L1.7265 0.832123L1.73171 0.582177ZM1.73171 0.582177L1.7377 0.332248L1.73691 0.332232L1.73171 0.582177ZM5.0751 0.567377L5.0543 0.318244L5.0751 0.567377ZM10.4638 1.19968L10.3242 1.40715L10.3261 1.40837L10.4638 1.19968ZM12.1186 4.34565L11.8686 4.34106V4.34565H12.1186ZM8.92783 8.14984L8.9295 8.39983L8.97421 8.39953L9.01604 8.38376L8.92783 8.14984ZM8.52963 8.31051L8.35742 8.12928L8.27963 8.2032V8.31051H8.52963ZM8.88457 8.45117L8.83531 8.69627L8.88457 8.45117ZM9.22778 8.523L9.17367 8.76712L9.17842 8.76808L9.22778 8.523ZM12.8478 12.322L13.0978 12.3238V12.322H12.8478ZM10.6396 15.8411L10.7439 16.0684L10.7497 16.0656L10.6396 15.8411ZM7.33503 16.4942L7.34507 16.2442H7.33503V16.4942ZM5.44745 16.4268L5.42173 16.6755H5.42174L5.44745 16.4268ZM3.91714 16.3787V16.6287L3.9188 16.6287L3.91714 16.3787ZM3.91702 16.3787V16.1287L3.91537 16.1287L3.91702 16.3787ZM1.78678 16.4111V16.6612L1.79274 16.661L1.78678 16.4111ZM1.78674 16.4111V16.161L1.78079 16.1612L1.78674 16.4111ZM1 16.4268H0.75V16.6768H1V16.4268ZM1 15.9655L0.988737 15.7158L0.75 15.7265V15.9655H1ZM2.51524 15.7582L2.33826 15.5816H2.33826L2.51524 15.7582ZM2.63478 14.6602L2.88478 14.6595L2.63478 14.6602ZM2.63418 2.6405H2.88418V2.3905H2.63418V2.6405ZM6.6317 8.17579L6.65647 7.92702L6.64412 7.92579H6.6317V8.17579ZM4.49072 8.0825H4.24072V8.31097L4.46826 8.33149L4.49072 8.0825ZM8.72614 7.75598L8.84494 7.9762L8.85396 7.97084L8.72614 7.75598ZM10.3293 4.81733L10.079 4.81369L10.0794 4.82591L10.3293 4.81733ZM9.04677 1.78538L9.21831 1.60322L9.21045 1.59641L9.04677 1.78538ZM4.57864 1.24637L4.35493 1.13476L4.3513 1.14204L4.34815 1.14953L4.57864 1.24637ZM4.60967 15.779L4.78267 15.5985H4.78267L4.60967 15.779ZM4.49072 8.70961L4.46912 8.46054L4.24072 8.48035V8.70961H4.49072ZM10.8464 12.208H10.5962L10.5967 12.2185L10.8464 12.208ZM9.49669 15.24L9.6514 15.4364L9.65593 15.4327L9.49669 15.24ZM2.35064 1.4078C2.32151 1.38368 2.32578 1.36556 2.33712 1.40848C2.34767 1.44843 2.35758 1.51468 2.36469 1.62178C2.37886 1.83551 2.37901 2.15671 2.37901 2.6405H2.87901C2.87901 2.16548 2.87915 1.82327 2.86359 1.58869C2.85583 1.47164 2.84344 1.3675 2.82054 1.2808C2.79842 1.19706 2.75809 1.09601 2.66949 1.02266L2.35064 1.4078ZM0.988848 1.24212C1.5084 1.26532 1.84466 1.29592 2.06221 1.33115C2.17082 1.34874 2.24358 1.36651 2.29171 1.38257C2.34082 1.39895 2.35327 1.40998 2.35064 1.4078L2.66949 1.02266C2.5534 0.926548 2.37596 0.875439 2.14212 0.837577C1.89553 0.79765 1.53624 0.766063 1.01115 0.742616L0.988848 1.24212ZM0.75 0.567377V0.992368H1.25V0.567377H0.75ZM1.7377 0.332249C1.39731 0.324085 1.11851 0.317377 1 0.317377V0.817377C1.11072 0.817377 1.38076 0.823832 1.72571 0.832105L1.7377 0.332249ZM1.73691 0.332232L1.73691 0.332232L1.7265 0.832123L1.7265 0.832123L1.73691 0.332232ZM3.58573 0.364022C3.06309 0.364022 2.30838 0.345937 1.7377 0.332249L1.72571 0.832105C2.29419 0.84574 3.05575 0.864022 3.58573 0.864022V0.364022ZM5.0543 0.318244C4.50723 0.363933 4.10283 0.364022 3.58573 0.364022V0.864022C4.10291 0.864022 4.52594 0.864111 5.09591 0.816509L5.0543 0.318244ZM6.84374 0.25C6.25415 0.25 5.62126 0.270893 5.0543 0.318244L5.09591 0.816509C5.64598 0.770569 6.26459 0.75 6.84374 0.75V0.25ZM10.6033 0.992222C9.73235 0.406583 8.3941 0.25 6.84374 0.25V0.75C8.39625 0.75 9.59202 0.914751 10.3243 1.40714L10.6033 0.992222ZM12.3686 4.35024C12.3934 3.00108 11.7265 1.73308 10.6014 0.990988L10.3261 1.40837C11.3079 2.05597 11.8903 3.16285 11.8687 4.34106L12.3686 4.35024ZM9.01604 8.38376C10.0656 7.988 10.9038 7.45992 11.4811 6.78541C12.0622 6.10651 12.3686 5.29066 12.3686 4.34565H11.8686C11.8686 5.17316 11.6036 5.87329 11.1013 6.4603C10.5951 7.05168 9.838 7.53944 8.83963 7.91592L9.01604 8.38376ZM8.70185 8.49173C8.76345 8.43319 8.84483 8.4004 8.9295 8.39983L8.92617 7.89984C8.71431 7.90126 8.511 7.98333 8.35742 8.12928L8.70185 8.49173ZM8.93382 8.20607C8.86626 8.1925 8.81392 8.18197 8.77153 8.17244C8.72801 8.16267 8.70414 8.15593 8.69133 8.15135C8.67512 8.14556 8.69656 8.15004 8.72291 8.17595C8.73842 8.19119 8.75433 8.21254 8.76551 8.24C8.77656 8.26714 8.77963 8.29201 8.77963 8.31051H8.27963C8.27963 8.3911 8.30946 8.47064 8.37236 8.53248C8.42364 8.5829 8.48387 8.60818 8.5231 8.6222C8.6002 8.64974 8.71219 8.67153 8.83531 8.69627L8.93382 8.20607ZM9.28188 8.27892C9.14119 8.24774 9.0259 8.22458 8.93382 8.20607L8.83531 8.69627C8.9272 8.71474 9.03826 8.73706 9.17368 8.76708L9.28188 8.27892ZM13.0978 12.322C13.0978 11.2226 12.7157 10.3187 12.0354 9.63406C11.3596 8.95393 10.4044 8.50495 9.27713 8.27792L9.17842 8.76808C10.2386 8.98159 11.0935 9.39555 11.6808 9.9865C12.2636 10.573 12.5978 11.3483 12.5978 12.322H13.0978ZM10.7497 16.0656C12.1773 15.3653 13.0865 13.9161 13.0978 12.3238L12.5978 12.3202C12.5878 13.7235 11.7866 15 10.5295 15.6167L10.7497 16.0656ZM7.32499 16.744C8.50179 16.7913 9.67311 16.5598 10.7439 16.0684L10.5353 15.6139C9.53611 16.0725 8.44312 16.2885 7.34507 16.2444L7.32499 16.744ZM5.42174 16.6755C6.08817 16.7444 6.75763 16.7442 7.33503 16.7442V16.2442C6.75403 16.2442 6.10993 16.244 5.47316 16.1781L5.42174 16.6755ZM3.9188 16.6287C4.40594 16.6255 4.90818 16.6224 5.42173 16.6755L5.47316 16.1781C4.92813 16.1218 4.39908 16.1255 3.91549 16.1287L3.9188 16.6287ZM3.91711 16.6287H3.91714V16.1287H3.91711V16.6287ZM3.91702 16.6287H3.91711V16.1287H3.91702V16.6287ZM3.58573 16.6302C3.69537 16.6302 3.80671 16.6294 3.91868 16.6287L3.91537 16.1287C3.8031 16.1294 3.69344 16.1302 3.58573 16.1302V16.6302ZM1.79274 16.661C2.36251 16.6475 3.09009 16.6302 3.58573 16.6302V16.1302C3.08277 16.1302 2.34831 16.1477 1.78083 16.1612L1.79274 16.661ZM1.78674 16.6611H1.78678V16.1611H1.78674V16.6611ZM1 16.6768C1.13258 16.6768 1.43299 16.6696 1.7927 16.661L1.78079 16.1612C1.41669 16.1699 1.12486 16.1768 1 16.1768V16.6768ZM0.75 15.9655V16.4268H1.25V15.9655H0.75ZM2.33826 15.5816C2.335 15.5849 2.29602 15.6201 2.06264 15.6487C1.84245 15.6758 1.51005 15.6923 0.988737 15.7158L1.01126 16.2153C1.52424 16.1921 1.87964 16.175 2.12359 16.145C2.35435 16.1166 2.55584 16.0715 2.69221 15.9348L2.33826 15.5816ZM2.38479 14.6609C2.38583 15.0213 2.38624 15.2511 2.37262 15.4075C2.35837 15.5711 2.33215 15.5878 2.33826 15.5816L2.69221 15.9348C2.8207 15.806 2.85528 15.6283 2.87073 15.4509C2.8868 15.2664 2.8858 15.0084 2.88478 14.6595L2.38479 14.6609ZM2.38418 14.3329C2.38418 14.4518 2.3845 14.5609 2.38479 14.6609L2.88478 14.6595C2.88449 14.5594 2.88418 14.451 2.88418 14.3329H2.38418ZM2.38418 2.6405V14.3329H2.88418V2.6405H2.38418ZM2.62901 2.8905H2.63418V2.3905H2.62901V2.8905ZM6.6317 7.92579C5.78175 7.92579 5.02394 7.87958 4.51318 7.83351L4.46826 8.33149C4.9918 8.37871 5.76473 8.42579 6.6317 8.42579V7.92579ZM8.60744 7.53596C8.01041 7.85804 7.3311 7.99419 6.65647 7.92702L6.60693 8.42456C7.38085 8.50162 8.16008 8.34542 8.84484 7.97601L8.60744 7.53596ZM10.0794 4.82591C10.1175 5.93439 9.54954 6.97524 8.59832 7.54113L8.85396 7.97084C9.96229 7.31148 10.6235 6.09918 10.5791 4.80874L10.0794 4.82591ZM8.87538 1.96738C9.65791 2.7043 10.095 3.73739 10.0793 4.81369L10.5793 4.82096C10.597 3.60451 10.103 2.43664 9.21816 1.60338L8.87538 1.96738ZM6.25419 1.21649C7.36844 1.21649 8.22616 1.40532 8.88309 1.97435L9.21045 1.59641C8.41937 0.911193 7.41537 0.716494 6.25419 0.716494V1.21649ZM4.80234 1.35797C4.80602 1.3506 4.80799 1.34646 4.82257 1.33761C4.84461 1.32423 4.89422 1.30245 5.0004 1.28191C5.21535 1.24033 5.58911 1.21649 6.25419 1.21649V0.716494C5.5902 0.716494 5.17272 0.739305 4.90544 0.791012C4.7705 0.817117 4.65624 0.853649 4.56306 0.910232C4.46241 0.971348 4.3978 1.04884 4.35493 1.13476L4.80234 1.35797ZM4.74072 2.60426C4.74072 2.09349 4.75236 1.78687 4.76828 1.59847C4.7844 1.40762 4.80378 1.35592 4.80912 1.3432L4.34815 1.14953C4.31212 1.23529 4.28754 1.34944 4.27005 1.55637C4.25236 1.76575 4.24072 2.08884 4.24072 2.60426H4.74072ZM4.74072 8.0825V2.60426H4.24072V8.0825H4.74072ZM4.24072 14.333C4.24072 14.8872 4.24054 15.2322 4.25623 15.4509C4.27146 15.6633 4.30374 15.832 4.43666 15.9594L4.78267 15.5985C4.78251 15.5983 4.78373 15.5997 4.78459 15.6011C4.78513 15.602 4.78295 15.5987 4.77949 15.5877C4.77149 15.5621 4.76195 15.5128 4.75495 15.4151C4.7409 15.2192 4.74072 14.8982 4.74072 14.333H4.24072ZM4.24072 8.70961V14.333H4.74072V8.70961H4.24072ZM6.61102 8.36631C5.62397 8.36631 5.01121 8.41353 4.46912 8.46054L4.51232 8.95867C5.04589 8.91239 5.64326 8.86631 6.61102 8.86631V8.36631ZM11.0964 12.208C11.0964 11.1608 10.8562 10.1856 10.1446 9.47529C9.43355 8.76557 8.29807 8.36631 6.61102 8.36631V8.86631C8.22854 8.86631 9.21077 9.24966 9.79133 9.82917C10.3713 10.4081 10.5964 11.2287 10.5964 12.208H11.0964ZM9.65593 15.4327C10.6154 14.6399 11.1485 13.4424 11.0962 12.1975L10.5967 12.2185C10.6424 13.3072 10.1762 14.3543 9.33746 15.0472L9.65593 15.4327ZM6.67825 16.2363C7.98763 16.2363 8.93718 15.9987 9.65136 15.4364L9.34203 15.0435C8.753 15.5074 7.93392 15.7363 6.67825 15.7363V16.2363ZM4.43666 15.9594C4.51279 16.0324 4.61867 16.0729 4.7166 16.1003C4.82297 16.1299 4.95927 16.1542 5.12849 16.1737C5.46765 16.2129 5.96609 16.2363 6.67825 16.2363V15.7363C5.97343 15.7363 5.49704 15.713 5.18589 15.677C5.02996 15.659 4.92223 15.6385 4.85099 15.6187C4.77132 15.5964 4.76602 15.5825 4.78267 15.5985L4.43666 15.9594Z" fill="#fff"/>
</svg>
