<svg xmlns="http://www.w3.org/2000/svg" width="1470" height="569" viewBox="0 0 1470 569">
    <defs>
        <filter id="prefix__b" width="101.3%" height="139.4%" x="-.6%" y="-19.7%" filterUnits="objectBoundingBox">
            <feGaussianBlur in="SourceGraphic" stdDeviation="3"/>
        </filter>
        <filter id="prefix__c" width="101.3%" height="148.3%" x="-.6%" y="-24.2%" filterUnits="objectBoundingBox">
            <feGaussianBlur in="SourceGraphic" stdDeviation="3"/>
        </filter>
        <filter id="prefix__d" width="101.3%" height="177.1%" x="-.6%" y="-38.6%" filterUnits="objectBoundingBox">
            <feGaussianBlur in="SourceGraphic" stdDeviation="3"/>
        </filter>
        <filter id="prefix__f" width="101.3%" height="130.2%" x="-.6%" y="-15.1%" filterUnits="objectBoundingBox">
            <feGaussianBlur in="SourceGraphic" stdDeviation="3"/>
        </filter>
        <filter id="prefix__g" width="101.3%" height="150.8%" x="-.6%" y="-25.4%" filterUnits="objectBoundingBox">
            <feGaussianBlur in="SourceGraphic" stdDeviation="3"/>
        </filter>
        <filter id="prefix__h" width="101.3%" height="129.3%" x="-.6%" y="-14.7%" filterUnits="objectBoundingBox">
            <feGaussianBlur in="SourceGraphic" stdDeviation="3"/>
        </filter>
        <filter id="prefix__i" width="101.3%" height="159.2%" x="-.6%" y="-29.6%" filterUnits="objectBoundingBox">
            <feGaussianBlur in="SourceGraphic" stdDeviation="3"/>
        </filter>
        <filter id="prefix__j" width="101.3%" height="130.2%" x="-.6%" y="-15.1%" filterUnits="objectBoundingBox">
            <feGaussianBlur in="SourceGraphic" stdDeviation="3"/>
        </filter>
        <filter id="prefix__k" width="101.3%" height="150.8%" x="-.6%" y="-25.4%" filterUnits="objectBoundingBox">
            <feGaussianBlur in="SourceGraphic" stdDeviation="3"/>
        </filter>
        <filter id="prefix__l" width="101.3%" height="129.3%" x="-.6%" y="-14.7%" filterUnits="objectBoundingBox">
            <feGaussianBlur in="SourceGraphic" stdDeviation="3"/>
        </filter>
        <filter id="prefix__m" width="101.3%" height="159.2%" x="-.6%" y="-29.6%" filterUnits="objectBoundingBox">
            <feGaussianBlur in="SourceGraphic" stdDeviation="3"/>
        </filter>
        <linearGradient id="prefix__a" x1=".81%" x2="100%" y1="49.948%" y2="50.053%">
            <stop offset="0%" stop-color="#FFF"/>
            <stop offset="100%" stop-color="#FFF" stop-opacity="0"/>
        </linearGradient>
        <linearGradient id="prefix__e" x1=".81%" x2="100%" y1="49.912%" y2="50.09%">
            <stop offset="0%" stop-color="#FFF"/>
            <stop offset="100%" stop-color="#FFF" stop-opacity="0"/>
        </linearGradient>
    </defs>
    <g fill="none" fill-rule="evenodd">
        <g>
            <path fill="url(#prefix__a)" fill-rule="nonzero" d="M1405.768 46.453V27.588v-4.61c0-.245-.754-.374-3.017-.464-8.678-.375-17.366-.723-26.426-.969-36.995-1.033-74.493-1.175-112.242-.58-27.301.4-53.727 1.213-79.52 2.233-34.35 1.356-67.444 2.983-100.035 4.713-23.912 1.265-47.563 2.57-71.596 3.796-51.968 2.647-105.95 4.765-161.818 6.353-39.26 1.11-79.021 1.885-119.665 2.208-61.656.49-122.809.116-183.711-1.046-33.722-.645-66.941-1.42-99.909-2.376-41.273-1.188-83.174-2.143-125.326-2.957-42.028-.787-84.433-1.29-127.34-1.368-21.644-.04-43.287-.065-64.677.22-16.987.232-33.849.516-50.71.838-26.172.491-52.22 1.098-77.385 1.989-.755.026-1.51.039-2.391.052v23.603c1.384.039 2.642.065 4.027.104 26.424.787 53.1 1.368 80.782 1.497 36.868.181 73.36-.038 109.221-.955 28.06-.71 56.12-1.433 83.55-2.376 27.809-.956 56.373-1.588 85.313-2.079 42.028-.71 84.307-.865 126.837-.542 17.113.129 33.849.426 50.08.942 5.286.168 10.57.31 15.855.452 21.517.594 42.908 1.253 64.173 1.937 44.292 1.433 88.836 2.776 133.254 4.158 30.074.943 60.399 1.795 90.975 2.518 48.068 1.136 96.638 1.575 145.712 1.343 15.48-.078 30.956-.22 46.552-.349 29.454-.245 58.645-.697 87.455-1.356 33.847-.762 66.187-2.014 97.39-3.538 32.59-1.588 63.17-3.499 91.104-5.836 16.482-1.382 32.209-2.854 48.197-4.3 10.69-.968 21.64-1.924 32.46-2.866 3.52-.31 7.17-.581 10.95-.865 1.378-.104 2.012-.22 1.881-.388-.12-.052 0-.155 0-.271zm-11.946-20.272c-.13-.026-.13-.065-.251-.09 1.377-.04 2.765-.078 4.153-.104.12.026.12.052.251.077-1.136.09-2.775.052-4.153.117z" filter="url(#prefix__b)" opacity=".5" transform="translate(10 10) translate(6 461)"/>
            <path stroke="#FFF" stroke-width="3" d="M11.061 31.737c33.855-1.626 120.267-4.879 195.081-4.879 93.518 0 256.42 16.59 440.44 16.59C830.602 43.448 1148.365 0 1263 0c91.708 0 151.667 15.229 169.939 17.343" filter="url(#prefix__c)" transform="translate(10 10) translate(6 461)"/>
            <path stroke="#FFF" d="M0 38.763c34.381-1.235 122.138-3.705 198.116-3.705 94.973 0 260.41 12.596 447.293 12.596 186.882 0 510.093-24.636 626.518-24.636 93.136 0 153.52 3.21 172.073 4.816" filter="url(#prefix__d)" transform="translate(10 10) translate(6 461)"/>
        </g>
        <g>
            <path fill="url(#prefix__e)" fill-rule="nonzero" d="M1405.768 37.216V12.624v-6.01c0-.319-.754-.487-3.017-.605-8.678-.488-17.366-.943-26.426-1.263-36.995-1.346-74.493-1.531-112.242-.757-27.301.522-53.727 1.582-79.52 2.912-34.35 1.767-67.444 3.888-100.035 6.144-23.912 1.65-47.563 3.35-71.596 4.948-51.968 3.45-105.95 6.211-161.818 8.282-39.26 1.447-79.021 2.457-119.665 2.878-61.656.64-122.809.151-183.711-1.363-33.722-.842-66.941-1.852-99.909-3.098-41.273-1.548-83.174-2.794-125.326-3.854-42.028-1.027-84.433-1.683-127.34-1.784-21.644-.05-43.287-.084-64.677.286-16.987.303-33.849.673-50.71 1.094-26.172.64-52.22 1.43-77.385 2.592-.755.034-1.51.05-2.391.067v30.77c1.384.05 2.642.084 4.027.134 26.424 1.027 53.1 1.784 80.782 1.953 36.868.235 73.36-.05 109.221-1.246 28.06-.926 56.12-1.868 83.55-3.097 27.809-1.246 56.373-2.07 85.313-2.71 42.028-.926 84.307-1.128 126.837-.707 17.113.168 33.849.555 50.08 1.229 5.286.219 10.57.404 15.855.589 21.517.774 42.908 1.633 64.173 2.525 44.292 1.868 88.836 3.619 133.254 5.42 30.074 1.228 60.399 2.34 90.975 3.282 48.068 1.481 96.638 2.053 145.712 1.75 15.48-.1 30.956-.286 46.552-.454 29.454-.32 58.645-.909 87.455-1.767 33.847-.994 66.187-2.626 97.39-4.612 32.59-2.07 63.17-4.562 91.104-7.609 16.482-1.8 32.209-3.72 48.197-5.605 10.69-1.262 21.64-2.508 32.46-3.736 3.52-.404 7.17-.758 10.95-1.128 1.378-.135 2.012-.286 1.881-.505-.12-.067 0-.202 0-.353zm-11.946-26.427c-.13-.034-.13-.084-.251-.118 1.377-.05 2.765-.1 4.153-.134.12.033.12.067.251.1-1.136.118-2.775.068-4.153.152z" filter="url(#prefix__f)" opacity=".5" transform="translate(10 10) matrix(1 0 0 -1 2 549)"/>
            <path stroke="#FFF" stroke-width="3" d="M11.061 18.033C44.916 15.913 112.481.5 206 .5c93.518 0 256.563 32.798 440.582 32.798 184.02 0 505.21.202 619.418.202 91.708 0 151.167 5.513 169.439 8.269" filter="url(#prefix__g)" transform="translate(10 10) matrix(1 0 0 -1 2 549)"/>
            <path stroke="#FFF" stroke-width="3" d="M11 67.5c28 4 122.266 17.64 197.08 17.64 93.519 0 256.421-51.842 440.44-51.842 184.02 0 505.212-19.798 619.419-19.798 91.708 0 151.167 5.513 169.438 8.269" filter="url(#prefix__h)" transform="translate(10 10) matrix(1 0 0 -1 2 549)"/>
            <path stroke="#FFF" d="M0 27.191c34.381-1.61 122.138-4.83 198.116-4.83 94.973 0 260.41 16.42 447.293 16.42 186.882 0 510.093-32.115 626.518-32.115 93.136 0 153.52 4.186 172.073 6.278" filter="url(#prefix__i)" transform="translate(10 10) matrix(1 0 0 -1 2 549)"/>
        </g>
        <g>
            <path fill="url(#prefix__e)" fill-rule="nonzero" d="M1405.768 37.216V12.624v-6.01c0-.319-.754-.487-3.017-.605-8.678-.488-17.366-.943-26.426-1.263-36.995-1.346-74.493-1.531-112.242-.757-27.301.522-53.727 1.582-79.52 2.912-34.35 1.767-67.444 3.888-100.035 6.144-23.912 1.65-47.563 3.35-71.596 4.948-51.968 3.45-105.95 6.211-161.818 8.282-39.26 1.447-79.021 2.457-119.665 2.878-61.656.64-122.809.151-183.711-1.363-33.722-.842-66.941-1.852-99.909-3.098-41.273-1.548-83.174-2.794-125.326-3.854-42.028-1.027-84.433-1.683-127.34-1.784-21.644-.05-43.287-.084-64.677.286-16.987.303-33.849.673-50.71 1.094-26.172.64-52.22 1.43-77.385 2.592-.755.034-1.51.05-2.391.067v30.77c1.384.05 2.642.084 4.027.134 26.424 1.027 53.1 1.784 80.782 1.953 36.868.235 73.36-.05 109.221-1.246 28.06-.926 56.12-1.868 83.55-3.097 27.809-1.246 56.373-2.07 85.313-2.71 42.028-.926 84.307-1.128 126.837-.707 17.113.168 33.849.555 50.08 1.229 5.286.219 10.57.404 15.855.589 21.517.774 42.908 1.633 64.173 2.525 44.292 1.868 88.836 3.619 133.254 5.42 30.074 1.228 60.399 2.34 90.975 3.282 48.068 1.481 96.638 2.053 145.712 1.75 15.48-.1 30.956-.286 46.552-.454 29.454-.32 58.645-.909 87.455-1.767 33.847-.994 66.187-2.626 97.39-4.612 32.59-2.07 63.17-4.562 91.104-7.609 16.482-1.8 32.209-3.72 48.197-5.605 10.69-1.262 21.64-2.508 32.46-3.736 3.52-.404 7.17-.758 10.95-1.128 1.378-.135 2.012-.286 1.881-.505-.12-.067 0-.202 0-.353zm-11.946-26.427c-.13-.034-.13-.084-.251-.118 1.377-.05 2.765-.1 4.153-.134.12.033.12.067.251.1-1.136.118-2.775.068-4.153.152z" filter="url(#prefix__j)" opacity=".5" transform="translate(10 10) scale(-1 1) rotate(-2 743.77 41476.642)"/>
            <path stroke="#FFF" stroke-width="3" d="M11.061 18.033C44.916 15.913 112.481.5 206 .5c93.518 0 256.563 32.798 440.582 32.798 184.02 0 505.21.202 619.418.202 91.708 0 151.167 5.513 169.439 8.269" filter="url(#prefix__k)" transform="translate(10 10) scale(-1 1) rotate(-2 743.77 41476.642)"/>
            <path stroke="#FFF" stroke-width="3" d="M11 67.5c28 4 122.266 17.64 197.08 17.64 93.519 0 256.421-51.842 440.44-51.842 184.02 0 505.212-19.798 619.419-19.798 91.708 0 151.167 5.513 169.438 8.269" filter="url(#prefix__l)" transform="translate(10 10) scale(-1 1) rotate(-2 743.77 41476.642)"/>
            <path stroke="#FFF" d="M0 27.191c34.381-1.61 122.138-4.83 198.116-4.83 94.973 0 260.41 16.42 447.293 16.42 186.882 0 510.093-32.115 626.518-32.115 93.136 0 153.52 4.186 172.073 6.278" filter="url(#prefix__m)" transform="translate(10 10) scale(-1 1) rotate(-2 743.77 41476.642)"/>
        </g>
    </g>
</svg>
