<svg xmlns="http://www.w3.org/2000/svg" width="120" height="15" viewBox="0 0 120 15">
    <path fill="#FFF" d="M1.511 2.214c0-.87 0-1.203-.108-1.293C1.295.832.98.761.031.72V.334c.277 0 1.584.042 2.35.042.47 0 .846 0 1.354-.042C4.242.29 4.81.273 5.342.273c1.41 0 2.562.145 3.29.634.958.63 1.526 1.707 1.505 2.854 0 1.607-1.039 2.75-2.9 3.45-.135 0-.264.053-.362.146 0 .084.146.084.634.192 1.989.4 3.29 1.566 3.29 3.446-.009 1.358-.786 2.595-2.006 3.192-.941.43-1.97.634-3.004.592-.527 0-1.124 0-1.716-.061-.592-.061-1.166-.042-1.692-.042-.743 0-2.05.042-2.35.042V14.3c.94-.043 1.25-.062 1.377-.188.127-.127.108-.424.108-1.293V2.214h-.005zM3.204 7.15c.47.042 1.165.084 1.946.084.658.066 1.32-.067 1.903-.38.936-.556 1.495-1.578 1.458-2.666.015-1.04-.408-2.038-1.166-2.75C6.687.87 5.84.696 4.806.696 3.598.696 3.368.78 3.283.95c-.037.089-.08.3-.08 1.231V7.15zm0 5.669c0 1.015 0 1.208.108 1.311.108.104.592.188 1.88.188 1.166 0 1.97-.211 2.562-.677.817-.673 1.271-1.691 1.227-2.75 0-1.837-.846-3.257-3.85-3.257-.889 0-1.439.042-1.927.085v5.1zm12.691.023c0 .865 0 1.208.109 1.293.108.085.446.127 1.523.188v.404c-.4 0-1.608-.042-2.478-.042-.742 0-2.054.042-2.35.042v-.404c.94-.042 1.25-.061 1.377-.188s.108-.423.108-1.293V2.214c0-.87 0-1.203-.108-1.293C13.968.832 13.653.776 12.7.73V.334c.277 0 1.584.042 2.35.042.381 0 .846 0 1.354-.066.508-.066 1.077-.056 1.415-.056 1.547 0 2.82.211 3.662.78 1.016.635 1.638 1.745 1.65 2.943 0 1.71-1.203 2.792-3.027 3.36-.57.194-.696.212-.696.278 0 .066.066.085.146.104l.32.084c2.98.823 3.342 3.027 3.426 5.289 0 .719.066.94.15 1.015.085.075.339.146 1.373.188v.404c-1.88-.042-2.35-.042-3.257-.042v-1.754c0-2.688-.339-3.365-1.143-4.084-.804-.72-1.589-.964-3.154-.964h-1.373v4.987zm0-5.584c.73.088 1.465.137 2.2.146 2.435 0 3.343-1.754 3.343-3.234.039-1.076-.451-2.104-1.312-2.75-.634-.508-1.5-.72-2.877-.72-1.057 0-1.25.127-1.292.235-.043.109-.066.297-.066 1.25v5.078l.004-.005zM32.456.024c3.573 0 7.131 2.665 7.131 7.488S36.033 15 32.457 15c-3.578 0-7.118-2.665-7.118-7.488S28.884.024 32.456.024zm0 .446c-3.154 0-5.204 2.98-5.204 7.051s2.05 7.051 5.204 7.051 5.204-2.985 5.204-7.05c0-4.067-2.05-7.057-5.204-7.057V.47zM48.49.024c3.578 0 7.127 2.665 7.127 7.488S52.067 15 48.49 15s-7.126-2.665-7.126-7.488S44.918.024 48.49.024zm0 .446c-3.154 0-5.203 2.98-5.203 7.051s2.05 7.051 5.203 7.051c3.154 0 5.204-2.985 5.204-7.05 0-4.067-2.03-7.057-5.204-7.057V.47zM60.082 12.82c0 .865 0 1.208.104 1.293.103.084.446.126 1.523.188v.404c-.405 0-1.608-.042-2.478-.042-.738 0-2.05.042-2.326.042V14.3c.94-.043 1.245-.062 1.372-.188.127-.127.108-.424.108-1.293V2.214c0-.87 0-1.203-.108-1.293-.108-.089-.423-.145-1.372-.192V.334c.272 0 1.584.042 2.326.042.87 0 2.073-.042 2.478-.042v.385c-1.077.066-1.41.066-1.523.193-.113.127-.104.423-.104 1.293v5.18c.203.033.407.053.611.06.381 0 1.077-.845 3.089-3.445 1.41-1.838 2.012-2.792 2.012-2.98 0-.188-.085-.216-.297-.216-.211 0-.719-.042-1.245-.066V.334c.696 0 1.457.042 2.157.042s1.627-.042 2.008-.042v.385c-.438-.026-.877.031-1.293.17-.254.126-.47.38-1.312 1.41l-3.337 4.113c-.052.043-.089.103-.103.169.06.147.155.278.277.38l5.326 6.347c.695.822.846.907 1.734.992v.404c-.47 0-1.523-.042-2.26-.042-.739 0-1.65 0-2.454.042V14.3c.526 0 1.16 0 1.16-.339 0-.338-.803-1.25-1.076-1.565l-3.45-4.071c-.339-.423-.47-.508-1.547-.55v5.044zm14.916 0c0 .865 0 1.208.103 1.293.103.084.447.126 1.523.188v.404c-.404 0-1.608-.042-2.477-.042-.87 0-2.073.042-2.473.042V14.3c1.081-.062 1.41-.062 1.523-.188.113-.127.108-.424.108-1.293V2.214c0-.87 0-1.203-.108-1.293-.108-.089-.442-.127-1.523-.192V.334c.4 0 1.608.042 2.473.042.865 0 2.078-.042 2.477-.042v.385c-1.076.066-1.41.066-1.523.193-.113.127-.103.423-.103 1.293v10.614zm8.334 1.885c-.254 0-1.354-.042-1.988-.042-.743 0-1.777.042-2.116.042V14.3c1.312-.062 1.439-.104 1.458-.442.084-1.439.277-10.027.277-11.677 0-.87 0-1.142-.108-1.227-.108-.084-.517-.15-1.627-.192v-.4h1.716c.677-.006 1.354-.048 2.026-.127l8.65 11.442c.103.15.126.169.21.169.086 0 .086-.066.086-.193 0-2.242-.109-7.404-.109-9.453 0-.804 0-1.142-.103-1.25-.103-.109-.47-.146-1.8-.235V.334c.296 0 1.311.042 1.988.042s1.655-.042 1.909-.042v.385c-.889.043-1.143.127-1.204.193-.061.066-.084.188-.108 1.293l-.235 12.499c0 .17-.042.272-.188.272-.177-.035-.327-.152-.404-.314L81.748 1.565c-.044-.133-.146-.24-.277-.291-.085 0-.109.061-.109.17l.062 11.36c0 .974 0 1.167.108 1.251.108.085.507.188 1.795.23v.405l.005.014zm22.803-4.085c0-.569 0-.78-.169-.889-.17-.108-.47-.126-2.115-.235v-.4c.865 0 1.269.043 2.515.043 1.523 0 2.091 0 2.623-.042V9.5c-.762 0-.94.042-1.058.17-.118.126-.108.192-.108.676v3.15c-1.592.955-3.408 1.474-5.265 1.504-3.76 0-7.592-1.946-7.592-7.277 0-4.23 2.896-7.723 7.742-7.723 1.006.014 2 .207 2.938.569.447.207.907.383 1.378.526.145 0 .127-.103.211-.822h.447l-.085 4.7h-.47c-.052-.886-.159-1.768-.32-2.641-.949-1.216-2.41-1.92-3.953-1.904-3.29 0-5.965 2.792-5.965 7.023 0 5.373 3.572 7.05 6.153 7.05.946.03 1.881-.198 2.708-.657.32-.212.38-.4.38-1.077V10.62h.005zm5.857 2.877c.953.644 2.066 1.01 3.216 1.057 1.965 0 3.173-1.41 3.173-2.919 0-1.88-1.505-2.538-2.985-3.173-2.793-1.184-4.461-1.88-4.461-4.315 0-2.176 1.734-4.122 4.503-4.122.817 0 1.623.196 2.35.568.762.381.823.531.94.531.118 0 .15-.211.193-.827h.423l-.136 3.892h-.447c0-1.673-.084-1.903-.253-2.18C117.788 1 116.613.42 115.377.464c-2.073 0-2.962 1.458-2.962 2.82 0 1.754 1.058 2.389 3.512 3.409 2.012.822 4.042 1.669 4.042 4.146 0 2.388-2.176 4.146-4.653 4.146-1.41-.063-2.8-.371-4.104-.912l-.15-3.399h.404l.526 2.82z"/>
</svg>
