
<svg xmlns="http://www.w3.org/2000/svg" viewBox="0 0 617.8853 157.6235"><defs><style>.cls-1{fill:#44cfcb;}.cls-2{fill:#fff;}</style></defs><g id="Layer_2" data-name="Layer 2"><g id="Layer_1-2" data-name="Layer 1"><path class="cls-1" d="M222.4142,45.89l68.0877,105.5367a4.0306,4.0306,0,0,1-3.3991,6.1967H249.7515a5.6429,5.6429,0,0,1-4.7588-2.61l-47.1-72.6033a3.2246,3.2246,0,0,1-.0025-3.4618l20.997-33.0541a2.0906,2.0906,0,0,1,3.527-.0038Z"/><path class="cls-2" d="M92.1262,18.62a4.0305,4.0305,0,0,0-6.7981,0L.6381,151.4268a4.0306,4.0306,0,0,0,3.399,6.1967H41.3888a5.6432,5.6432,0,0,0,4.7586-2.61l40.0006-62.68a3.0584,3.0584,0,0,1,5.1583,0l12.1643,19.0886a2.0907,2.0907,0,0,0,3.5254.0013L128.0424,78.45a3.2245,3.2245,0,0,0,.0012-3.4677Z"/><path class="cls-1" d="M93.2149,151.4268,187.56,1.8645a4.03,4.03,0,0,1,6.798,0l19.32,30.3172a3.2246,3.2246,0,0,1,.0026,3.4618l-74.9567,119.37a5.6427,5.6427,0,0,1-4.7587,2.6105H96.6142A4.0307,4.0307,0,0,1,93.2149,151.4268Z"/><path class="cls-2" d="M389.8863,156.8383,359.744,121.3774H339.8769V155.395a2.2284,2.2284,0,0,1-2.2284,2.2285H311.9592a2.2285,2.2285,0,0,1-2.2285-2.2285V47.5288A2.2285,2.2285,0,0,1,311.9592,45.3h60.41c27.5605,0,48.9622,13.3266,48.9622,37.9616,0,18.0143-11.3944,30.571-28.33,35.498l30.8046,35.1668a2.2285,2.2285,0,0,1-1.6763,3.6968H391.5842A2.2284,2.2284,0,0,1,389.8863,156.8383ZM370.059,98.59c11.24,0,19.4-3.58,19.4-14.7123s-8.16-14.7123-19.4-14.7123H339.7226V98.59Z"/><path class="cls-2" d="M571.7969,47.5294l-.0283,107.8662a2.2284,2.2284,0,0,1-2.2284,2.2279H543.9058a2.2285,2.2285,0,0,1-2.2285-2.2294l.0286-71.14-37.0888,50.331h-1.5395L465.99,84.2543l-.0285,71.1416a2.2285,2.2285,0,0,1-2.2285,2.2276H439.02a2.2285,2.2285,0,0,1-2.2285-2.2291L436.82,47.5282A2.2284,2.2284,0,0,1,439.0481,45.3h29.7852a2.2284,2.2284,0,0,1,1.8249.95l33.9589,48.4576,34.267-48.4652a2.2284,2.2284,0,0,1,1.82-.942h28.8648A2.2285,2.2285,0,0,1,571.7969,47.5294Z"/><path class="cls-2" d="M587.611,155.3944l.0283-107.8662A2.2286,2.2286,0,0,1,589.8678,45.3h25.789a2.2285,2.2285,0,0,1,2.2285,2.2291l-.0283,107.8662a2.2286,2.2286,0,0,1-2.2285,2.2279H589.84A2.2285,2.2285,0,0,1,587.611,155.3944Z"/></g></g></svg>