<?xml version="1.0" encoding="UTF-8"?>
<svg xmlns="http://www.w3.org/2000/svg" xmlns:xlink="http://www.w3.org/1999/xlink" width="609.5" height="157.62" viewBox="0 0 609.5 157.62">
<defs>
<clipPath id="clip-0">
<path clip-rule="nonzero" d="M 91 0 L 214 0 L 214 157.621094 L 91 157.621094 Z M 91 0 "/>
</clipPath>
<clipPath id="clip-1">
<path clip-rule="nonzero" d="M 196 46 L 290 46 L 290 157.621094 L 196 157.621094 Z M 196 46 "/>
</clipPath>
<clipPath id="clip-2">
<path clip-rule="nonzero" d="M 0 16 L 128 16 L 128 157.621094 L 0 157.621094 Z M 0 16 "/>
</clipPath>
<clipPath id="clip-3">
<path clip-rule="nonzero" d="M 298 49 L 412 49 L 412 157.621094 L 298 157.621094 Z M 298 49 "/>
</clipPath>
<clipPath id="clip-4">
<path clip-rule="nonzero" d="M 424 48 L 559 48 L 559 157.621094 L 424 157.621094 Z M 424 48 "/>
</clipPath>
<clipPath id="clip-5">
<path clip-rule="nonzero" d="M 579 49 L 609.5 49 L 609.5 157.621094 L 579 157.621094 Z M 579 49 "/>
</clipPath>
</defs>
<g clip-path="url(#clip-0)">
<path fill-rule="nonzero" fill="rgb(39.0625%, 79.414368%, 75.408936%)" fill-opacity="1" d="M 213.878906 35.828125 C 213.878906 36.289062 213.738281 36.71875 213.5 37.070312 L 138.101562 156.609375 C 138.089844 156.621094 138.089844 156.628906 138.078125 156.640625 C 138.078125 156.640625 138.078125 156.648438 138.070312 156.648438 C 137.671875 157.230469 137 157.621094 136.238281 157.621094 L 93.839844 157.621094 C 93.082031 157.621094 92.398438 157.238281 92 156.648438 C 91.960938 156.589844 91.917969 156.53125 91.878906 156.460938 C 91.710938 156.148438 91.609375 155.789062 91.609375 155.398438 C 91.609375 155.019531 91.710938 154.660156 91.878906 154.339844 C 91.917969 154.269531 91.960938 154.210938 92 154.148438 L 188.5 1.160156 C 188.539062 1.089844 188.578125 1.03125 188.621094 0.96875 C 189.019531 0.382812 189.699219 0 190.460938 0 C 191.210938 0 191.878906 0.382812 192.289062 0.960938 L 213.488281 34.570312 C 213.53125 34.632812 213.570312 34.699219 213.609375 34.769531 C 213.78125 35.078125 213.878906 35.441406 213.878906 35.828125 "/>
</g>
<g clip-path="url(#clip-1)">
<path fill-rule="nonzero" fill="rgb(39.0625%, 79.414368%, 75.408936%)" fill-opacity="1" d="M 289.308594 155.398438 C 289.308594 156.628906 288.308594 157.621094 287.089844 157.621094 L 244.691406 157.621094 C 243.929688 157.621094 243.25 157.238281 242.851562 156.648438 C 242.808594 156.589844 242.769531 156.53125 242.730469 156.460938 L 196.921875 83.851562 C 196.878906 83.789062 196.839844 83.730469 196.800781 83.660156 C 196.628906 83.351562 196.53125 82.992188 196.53125 82.601562 C 196.53125 82.21875 196.628906 81.859375 196.800781 81.539062 C 196.839844 81.46875 196.878906 81.410156 196.921875 81.351562 L 218 47.929688 C 218.039062 47.859375 218.078125 47.800781 218.121094 47.738281 C 218.519531 47.148438 219.199219 46.769531 219.960938 46.769531 C 220.710938 46.769531 221.378906 47.148438 221.789062 47.730469 L 288.921875 154.140625 C 288.960938 154.199219 289 154.269531 289.039062 154.339844 C 289.210938 154.648438 289.308594 155.011719 289.308594 155.398438 "/>
</g>
<g clip-path="url(#clip-2)">
<path fill-rule="nonzero" fill="rgb(11.627197%, 22.242737%, 38.157654%)" fill-opacity="1" d="M 128 78.460938 C 128 78.910156 127.871094 79.328125 127.640625 79.667969 C 127.628906 79.679688 127.628906 79.6875 127.621094 79.699219 L 106.441406 113.277344 C 106.429688 113.289062 106.429688 113.300781 106.421875 113.308594 C 106.421875 113.308594 106.421875 113.320312 106.410156 113.320312 C 106.011719 113.898438 105.339844 114.289062 104.578125 114.289062 C 103.820312 114.289062 103.140625 113.910156 102.738281 113.320312 C 102.699219 113.257812 102.660156 113.199219 102.621094 113.128906 L 88.25 90.367188 L 46.558594 156.449219 C 46.519531 156.519531 46.480469 156.589844 46.441406 156.648438 C 46.039062 157.230469 45.371094 157.617188 44.609375 157.617188 L 44.589844 157.617188 L 2.230469 157.597656 C 1 157.597656 0 156.609375 0 155.378906 C 0 154.917969 0.140625 154.488281 0.378906 154.140625 L 86.410156 17.730469 C 86.808594 17.140625 87.480469 16.75 88.25 16.75 C 89.019531 16.75 89.691406 17.140625 90.089844 17.730469 L 127.609375 77.199219 C 127.648438 77.257812 127.691406 77.328125 127.730469 77.398438 C 127.898438 77.710938 128 78.070312 128 78.460938 "/>
</g>
<g clip-path="url(#clip-3)">
<path fill-rule="nonzero" fill="rgb(12.738037%, 19.99054%, 35.958862%)" fill-opacity="1" d="M 358.230469 100.714844 C 371.226562 100.714844 380.804688 97.261719 380.804688 86.53125 C 380.804688 75.800781 371.226562 72.347656 358.230469 72.347656 L 328.222656 72.347656 L 328.222656 100.714844 Z M 377.84375 156.863281 L 348.027344 122.679688 L 328.375 122.679688 L 328.375 155.472656 C 328.375 156.65625 327.386719 157.617188 326.171875 157.617188 L 300.761719 157.617188 C 299.542969 157.617188 298.554688 156.65625 298.554688 155.472656 L 298.554688 51.492188 C 298.554688 50.304688 299.542969 49.34375 300.761719 49.34375 L 360.515625 49.34375 C 387.777344 49.34375 408.949219 62.191406 408.949219 85.9375 C 408.949219 103.300781 397.679688 115.40625 380.925781 120.15625 L 411.398438 154.054688 C 412.644531 155.445312 411.632812 157.617188 409.738281 157.617188 L 379.523438 157.617188 C 378.878906 157.617188 378.261719 157.34375 377.84375 156.863281 "/>
</g>
<g clip-path="url(#clip-4)">
<path fill-rule="nonzero" fill="rgb(12.738037%, 19.99054%, 35.958862%)" fill-opacity="1" d="M 558.476562 50.988281 L 558.445312 154.96875 C 558.445312 156.152344 557.460938 157.113281 556.242188 157.113281 L 530.886719 157.113281 C 529.667969 157.113281 528.679688 156.152344 528.679688 154.964844 L 528.710938 86.390625 L 492.023438 134.90625 L 490.5 134.90625 L 453.8125 86.390625 L 453.785156 154.96875 C 453.785156 156.152344 452.796875 157.113281 451.578125 157.113281 L 427.132812 157.113281 C 425.914062 157.113281 424.929688 156.152344 424.929688 154.964844 L 424.957031 50.988281 C 424.957031 49.800781 425.945312 48.839844 427.160156 48.839844 L 456.625 48.839844 C 457.34375 48.839844 458.019531 49.183594 458.429688 49.753906 L 492.023438 96.464844 L 525.917969 49.746094 C 526.332031 49.179688 527.003906 48.839844 527.71875 48.839844 L 556.269531 48.839844 C 557.488281 48.839844 558.476562 49.800781 558.476562 50.988281 "/>
</g>
<g clip-path="url(#clip-5)">
<path fill-rule="nonzero" fill="rgb(12.738037%, 19.99054%, 35.958862%)" fill-opacity="1" d="M 579.550781 155.46875 L 579.578125 51.492188 C 579.578125 50.304688 580.5625 49.34375 581.78125 49.34375 L 607.289062 49.34375 C 608.507812 49.34375 609.496094 50.304688 609.496094 51.492188 L 609.46875 155.472656 C 609.46875 156.65625 608.480469 157.617188 607.261719 157.617188 L 581.753906 157.617188 C 580.535156 157.617188 579.546875 156.65625 579.550781 155.46875 "/>
</g>
</svg>
